<svg width="332" height="664" viewBox="0 0 332 664" fill="none" xmlns="http://www.w3.org/2000/svg">
<path d="M62.3 57.76C77.0333 58.8933 87.8567 62.2933 94.77 67.96C101.683 73.6267 105.14 80.3133 105.14 88.02C105.14 98.56 101.003 106.72 92.73 112.5C84.4567 118.167 72.9533 121 58.22 121C54.9333 121 52.1567 120.943 49.89 120.83C42.41 120.603 35.1 120.49 27.96 120.49C16.2867 120.49 7.56 120.66 1.78 121L1.78 117.6C5.52 117.373 8.24 116.92 9.94 116.24C11.7533 115.56 12.9433 114.257 13.51 112.33C14.19 110.403 14.53 107.287 14.53 102.98L14.53 18.66C14.53 14.3533 14.19 11.2367 13.51 9.31C12.9433 7.38333 11.7533 6.08 9.94 5.4C8.24 4.71999 5.52 4.26666 1.78 4.04L1.78 0.639999C7.56 0.979995 16.1733 1.14999 27.62 1.14999L46.49 0.979995C48.7567 0.866663 51.3633 0.809997 54.31 0.809997C67.91 0.809997 78.28 3.24666 85.42 8.11999C92.6733 12.9933 96.3 19.4533 96.3 27.5C96.3 34.0733 93.41 40.1933 87.63 45.86C81.9633 51.5267 73.52 55.38 62.3 57.42V57.76ZM52.1 4.04C49.04 4.04 46.7733 4.43666 45.3 5.22999C43.94 6.02333 42.9767 7.44 42.41 9.48C41.8433 11.52 41.56 14.58 41.56 18.66L41.56 57.08H48.87C56.2367 57.08 61.3933 54.5867 64.34 49.6C67.2867 44.5 68.76 37.7567 68.76 29.37C68.76 20.87 67.4 14.5233 64.68 10.33C62.0733 6.13666 57.88 4.04 52.1 4.04ZM53.29 117.09C69.0433 117.09 76.92 107.173 76.92 87.34C76.92 78.3867 74.6533 71.5867 70.12 66.94C65.5867 62.2933 58.4467 59.97 48.7 59.97H41.56L41.56 102.98C41.56 107.06 41.8433 110.063 42.41 111.99C42.9767 113.917 44.0533 115.277 45.64 116.07C47.34 116.75 49.89 117.09 53.29 117.09ZM156.159 30.73C169.192 30.73 179.392 34.47 186.759 41.95C194.125 49.3167 197.809 61.0467 197.809 77.14C197.809 93.2333 194.125 104.963 186.759 112.33C179.392 119.697 169.192 123.38 156.159 123.38C143.239 123.38 133.039 119.697 125.559 112.33C118.192 104.963 114.509 93.2333 114.509 77.14C114.509 61.0467 118.192 49.3167 125.559 41.95C133.039 34.47 143.239 30.73 156.159 30.73ZM156.159 34.13C151.285 34.13 147.375 37.7 144.429 44.84C141.595 51.8667 140.179 62.6333 140.179 77.14C140.179 91.6467 141.595 102.413 144.429 109.44C147.375 116.467 151.285 119.98 156.159 119.98C161.145 119.98 165.055 116.523 167.889 109.61C170.722 102.583 172.139 91.76 172.139 77.14C172.139 62.52 170.665 51.6967 167.719 44.67C164.885 37.6433 161.032 34.13 156.159 34.13ZM196.753 282.3C196.753 287.513 197.547 291.31 199.133 293.69C200.72 296.07 203.553 297.26 207.633 297.26V300.83C204.12 300.49 200.607 300.32 197.093 300.32C187.007 300.32 178.733 301.113 172.273 302.7V288.08C168.42 298.28 161.053 303.38 150.173 303.38C139.52 303.38 131.02 299.527 124.673 291.82C118.44 284 115.38 272.27 115.493 256.63C115.493 246.657 117.08 238.27 120.253 231.47C123.54 224.557 128.017 219.4 133.683 216C139.463 212.487 146.037 210.73 153.403 210.73C161.677 210.73 167.967 212.883 172.273 217.19V188.29C172.273 183.077 171.423 179.28 169.723 176.9C168.137 174.52 165.36 173.33 161.393 173.33V169.76C165.02 170.1 168.533 170.27 171.933 170.27C181.793 170.27 190.067 169.477 196.753 167.89L196.753 282.3ZM157.143 296.07C160.883 296.07 164.17 294.71 167.003 291.99C169.95 289.27 171.707 285.587 172.273 280.94L172.273 221.44C169.44 217.587 165.303 215.66 159.863 215.66C153.857 215.66 149.21 219.117 145.923 226.03C142.637 232.943 141.05 243.257 141.163 256.97C141.05 270.797 142.353 280.77 145.073 286.89C147.907 293.01 151.93 296.07 157.143 296.07ZM282.755 213.62C288.421 213.62 292.785 213.45 295.845 213.11V216.51C293.465 217.19 291.311 218.663 289.385 220.93C287.571 223.083 285.815 226.483 284.115 231.13L253.685 316.64C251.418 322.533 248.925 326.557 246.205 328.71C242.918 331.543 237.988 332.96 231.415 332.96C226.655 332.96 222.348 331.77 218.495 329.39C214.755 327.123 212.885 323.78 212.885 319.36C212.885 315.847 214.131 313.013 216.625 310.86C219.118 308.82 222.405 307.8 226.485 307.8C230.338 307.8 233.398 308.707 235.665 310.52C238.045 312.447 239.235 315.11 239.235 318.51C239.235 320.89 238.498 323.043 237.025 324.97C235.551 327.01 233.455 328.54 230.735 329.56C231.528 329.673 232.831 329.73 234.645 329.73C241.671 329.73 246.828 325.253 250.115 316.3L252.835 308.14L216.795 226.2C214.981 222.347 213.225 219.797 211.525 218.55C209.825 217.303 208.068 216.68 206.255 216.68V213.11C213.735 213.79 221.498 214.13 229.545 214.13C236.231 214.13 244.108 213.79 253.175 213.11V216.68C249.548 216.68 246.828 216.963 245.015 217.53C243.315 217.983 242.465 219.287 242.465 221.44C242.465 222.687 242.861 224.273 243.655 226.2L264.395 276.35L276.125 243.71C277.938 238.383 278.845 233.85 278.845 230.11C278.845 221.837 274.651 217.303 266.265 216.51V213.11C271.591 213.45 277.088 213.62 282.755 213.62ZM136.76 465.19C136.76 469.837 137.553 473.067 139.14 474.88C140.84 476.58 143.673 477.43 147.64 477.43V481C136.307 480.547 128.827 480.32 125.2 480.32C122.027 480.32 115 480.547 104.12 481V477.43C107.18 477.43 109.277 476.58 110.41 474.88C111.657 473.18 112.28 469.95 112.28 465.19L112.28 412.32C112.28 407.56 111.543 404.047 110.07 401.78C108.71 399.4 106.047 398.21 102.08 398.21C97.8867 398.21 94.2033 399.967 91.03 403.48C87.97 406.993 86.1567 411.3 85.59 416.4V419.46L85.59 465.19C85.59 469.837 86.27 473.067 87.63 474.88C89.1033 476.58 91.71 477.43 95.45 477.43V481C84.57 480.547 77.43 480.32 74.03 480.32C70.8567 480.32 63.83 480.547 52.95 481L52.95 477.43C56.01 477.43 58.1067 476.58 59.24 474.88C60.4867 473.067 61.11 469.837 61.11 465.19L61.11 412.32C61.11 407.56 60.4867 404.047 59.24 401.78C57.9933 399.4 55.5567 398.21 51.93 398.21C47.3967 398.21 43.4867 400.137 40.2 403.99C37.0267 407.73 35.44 412.377 35.44 417.93L35.44 465.19C35.44 469.837 36.0067 473.067 37.14 474.88C38.3867 476.58 40.54 477.43 43.6 477.43L43.6 481C33.6267 480.547 26.94 480.32 23.54 480.32C20.14 480.32 12.32 480.547 0.08 481L0.08 477.43C4.16 477.43 6.99333 476.58 8.58 474.88C10.1667 473.067 10.96 469.837 10.96 465.19L10.96 411.64C10.96 406.427 10.1667 402.63 8.58 400.25C6.99333 397.87 4.16 396.68 0.08 396.68L0.08 393.11C3.70667 393.45 7.22 393.62 10.62 393.62C20.7067 393.62 28.98 392.827 35.44 391.24V406.54C40.4267 396 49.21 390.73 61.79 390.73C70.4033 390.73 76.6367 392.94 80.49 397.36C82.6433 399.627 84.06 403.027 84.74 407.56C87.6867 401.44 91.54 397.133 96.3 394.64C101.06 392.033 106.613 390.73 112.96 390.73C121.573 390.73 127.807 392.94 131.66 397.36C133.473 399.4 134.777 402.177 135.57 405.69C136.363 409.203 136.76 413.793 136.76 419.46V465.19ZM195.836 390.73C208.87 390.73 219.07 394.47 226.436 401.95C233.803 409.317 237.486 421.047 237.486 437.14C237.486 453.233 233.803 464.963 226.436 472.33C219.07 479.697 208.87 483.38 195.836 483.38C182.916 483.38 172.716 479.697 165.236 472.33C157.87 464.963 154.186 453.233 154.186 437.14C154.186 421.047 157.87 409.317 165.236 401.95C172.716 394.47 182.916 390.73 195.836 390.73ZM195.836 394.13C190.963 394.13 187.053 397.7 184.106 404.84C181.273 411.867 179.856 422.633 179.856 437.14C179.856 451.647 181.273 462.413 184.106 469.44C187.053 476.467 190.963 479.98 195.836 479.98C200.823 479.98 204.733 476.523 207.566 469.61C210.4 462.583 211.816 451.76 211.816 437.14C211.816 422.52 210.343 411.697 207.396 404.67C204.563 397.643 200.71 394.13 195.836 394.13ZM289.96 390.73C302.993 390.73 313.193 394.47 320.56 401.95C327.926 409.317 331.61 421.047 331.61 437.14C331.61 453.233 327.926 464.963 320.56 472.33C313.193 479.697 302.993 483.38 289.96 483.38C277.04 483.38 266.84 479.697 259.36 472.33C251.993 464.963 248.31 453.233 248.31 437.14C248.31 421.047 251.993 409.317 259.36 401.95C266.84 394.47 277.04 390.73 289.96 390.73ZM289.96 394.13C285.086 394.13 281.176 397.7 278.23 404.84C275.396 411.867 273.98 422.633 273.98 437.14C273.98 451.647 275.396 462.413 278.23 469.44C281.176 476.467 285.086 479.98 289.96 479.98C294.946 479.98 298.856 476.523 301.69 469.61C304.523 462.583 305.94 451.76 305.94 437.14C305.94 422.52 304.466 411.697 301.52 404.67C298.686 397.643 294.833 394.13 289.96 394.13ZM272.109 642.3C272.109 647.513 272.902 651.31 274.489 653.69C276.075 656.07 278.909 657.26 282.989 657.26V660.83C279.475 660.49 275.962 660.32 272.449 660.32C262.362 660.32 254.089 661.113 247.629 662.7V648.08C243.775 658.28 236.409 663.38 225.529 663.38C214.875 663.38 206.375 659.527 200.029 651.82C193.795 644 190.735 632.27 190.849 616.63C190.849 606.657 192.435 598.27 195.609 591.47C198.895 584.557 203.372 579.4 209.039 576C214.819 572.487 221.392 570.73 228.759 570.73C237.032 570.73 243.322 572.883 247.629 577.19V548.29C247.629 543.077 246.779 539.28 245.079 536.9C243.492 534.52 240.715 533.33 236.749 533.33V529.76C240.375 530.1 243.889 530.27 247.289 530.27C257.149 530.27 265.422 529.477 272.109 527.89V642.3ZM232.499 656.07C236.239 656.07 239.525 654.71 242.359 651.99C245.305 649.27 247.062 645.587 247.629 640.94L247.629 581.44C244.795 577.587 240.659 575.66 235.219 575.66C229.212 575.66 224.565 579.117 221.279 586.03C217.992 592.943 216.405 603.257 216.519 616.97C216.405 630.797 217.709 640.77 220.429 646.89C223.262 653.01 227.285 656.07 232.499 656.07Z" fill="#1C1C1C"/>
</svg>
