<svg width="327" height="56" viewBox="0 0 327 56" fill="none" xmlns="http://www.w3.org/2000/svg">
<rect width="327" height="56" rx="2" fill="#1C1C1C"/>
<path d="M145.872 34L142.038 22.6851H138.507L134.673 34H137.535L138.297 31.5856H142.248L143.01 34H145.872ZM140.225 25.4862H140.314L141.601 29.547H138.944L140.225 25.4862ZM149.692 37.1823V32.6298H149.752C150.089 33.3978 150.841 34.1271 152.145 34.1271C154.029 34.1271 155.542 32.6409 155.542 29.7624C155.542 26.7845 153.946 25.4033 152.156 25.4033C150.797 25.4033 150.073 26.1989 149.752 26.9613H149.664V25.5138H147.056V37.1823H149.692ZM149.636 29.7569C149.636 28.3425 150.222 27.4641 151.244 27.4641C152.277 27.4641 152.841 28.3702 152.841 29.7569C152.841 31.1492 152.272 32.0608 151.244 32.0608C150.228 32.0608 149.636 31.1547 149.636 29.7569ZM159.567 37.1823V32.6298H159.627C159.964 33.3978 160.716 34.1271 162.02 34.1271C163.904 34.1271 165.417 32.6409 165.417 29.7624C165.417 26.7845 163.821 25.4033 162.031 25.4033C160.672 25.4033 159.948 26.1989 159.627 26.9613H159.539V25.5138H156.931V37.1823H159.567ZM159.511 29.7569C159.511 28.3425 160.097 27.4641 161.119 27.4641C162.152 27.4641 162.716 28.3702 162.716 29.7569C162.716 31.1492 162.147 32.0608 161.119 32.0608C160.103 32.0608 159.511 31.1547 159.511 29.7569ZM166.806 22.6851V34H169.442V22.6851H166.806ZM179.085 29.7293C179.085 26.9171 177.372 25.4033 174.996 25.4033C172.449 25.4033 170.803 27.1657 170.803 29.7901C170.803 32.5028 172.427 34.1602 175.079 34.1602C177.284 34.1602 178.737 33.0939 179.051 31.442H176.598C176.389 31.9392 175.853 32.2486 175.129 32.2486C174.063 32.2486 173.405 31.5414 173.405 30.4586V30.4033H179.085V29.7293ZM175.051 27.3149C175.963 27.3149 176.615 27.9558 176.626 28.8508H173.405C173.444 27.9779 174.123 27.3149 175.051 27.3149ZM191.196 30.1326H195.528V28.3149H187.274V26.9337H195.202V22.0497H185.008V23.8398H192.975V25.1878H185.025V30.1326H188.97V32.1271H183.561V33.9558H196.66V32.1271H191.196V30.1326ZM206.649 24.221C206.643 26.1823 206.643 28.1934 206.113 30.9061L208.395 31.0884C208.892 28.1657 208.892 26.2486 208.897 24.221V22.4088H198.721V24.2099H206.649V24.221ZM197.389 33.6851H210.461V31.8564H197.389V33.6851ZM221.002 21.1768V31.4199H223.261V21.1768H221.002ZM219.333 25.7017C219.333 23.5912 217.587 22.0552 215.366 22.0552C213.145 22.0552 211.388 23.5912 211.394 25.7017C211.388 27.8508 213.145 29.3702 215.366 29.3757C217.587 29.3702 219.333 27.8508 219.333 25.7017ZM213.593 25.7017C213.587 24.6188 214.35 24.0055 215.366 24.011C216.344 24.0055 217.107 24.6188 217.107 25.7017C217.107 26.8232 216.344 27.4199 215.366 27.4199C214.35 27.4199 213.587 26.8232 213.593 25.7017ZM215.825 30.3923H213.549V35.2707H223.615V33.4696H215.825V30.3923Z" fill="white"/>
<path d="M121.464 28.5937C121.441 26.1819 123.422 25.024 123.507 24.9703C122.395 23.3316 120.66 23.1032 120.045 23.0758C118.569 22.9262 117.163 23.9517 116.412 23.9517C115.662 23.9517 114.507 23.1009 113.285 23.1249C111.673 23.1478 110.193 24.067 109.364 25.5127C107.693 28.4293 108.935 32.7527 110.566 35.1177C111.361 36.2756 112.309 37.5763 113.554 37.5295C114.756 37.4827 115.209 36.7496 116.661 36.7496C118.113 36.7496 118.519 37.5295 119.789 37.5101C121.08 37.4827 121.899 36.3247 122.686 35.1668C123.251 34.3304 123.694 33.4166 124 32.4535C123.978 32.4433 121.488 31.4817 121.464 28.5937Z" fill="white"/>
<path d="M119.075 21.5115C119.739 20.7064 120.186 19.585 120.062 18.4693C119.109 18.5058 117.955 19.1088 117.274 19.9116C116.658 20.6276 116.119 21.7707 116.266 22.8624C117.327 22.9435 118.416 22.3177 119.075 21.5115Z" fill="white"/>
</svg>
