<svg width="310" height="550" viewBox="0 0 310 550" fill="none" xmlns="http://www.w3.org/2000/svg">
<rect width="310" height="550" fill="#F7F7F7"/>
<path d="M60.1397 237.008C61.5797 237.008 62.8037 237.212 63.8117 237.62C64.8197 238.028 65.8037 238.604 66.7637 239.348C67.0277 239.564 67.2557 239.672 67.4477 239.672C67.9277 239.672 68.2397 238.952 68.3837 237.512H69.2117C69.1157 239.144 69.0677 242.048 69.0677 246.224H68.2397C68.0237 244.448 67.7357 243.092 67.3757 242.156C67.0157 241.22 66.4037 240.404 65.5397 239.708C64.9397 239.132 64.2437 238.7 63.4517 238.412C62.6597 238.1 61.8317 237.944 60.9677 237.944C58.5437 237.944 56.7437 239.132 55.5677 241.508C54.3917 243.86 53.8037 246.8 53.8037 250.328C53.8037 253.832 54.4157 256.76 55.6397 259.112C56.8637 261.464 58.6877 262.64 61.1117 262.64C61.9277 262.64 62.7317 262.496 63.5237 262.208C64.3397 261.896 65.0237 261.452 65.5757 260.876C66.4637 260.204 67.0757 259.364 67.4117 258.356C67.7717 257.348 68.0477 255.872 68.2397 253.928H69.0677C69.0677 258.272 69.1157 261.296 69.2117 263H68.3837C68.3117 262.232 68.2037 261.692 68.0597 261.38C67.9397 261.044 67.7597 260.876 67.5197 260.876C67.3277 260.876 67.0757 260.972 66.7637 261.164C65.6837 261.932 64.6517 262.52 63.6677 262.928C62.6837 263.312 61.4957 263.504 60.1037 263.504C57.5597 263.504 55.3277 262.988 53.4077 261.956C51.5117 260.924 50.0357 259.436 48.9797 257.492C47.9237 255.524 47.3957 253.184 47.3957 250.472C47.3957 247.832 47.9357 245.492 49.0157 243.452C50.0957 241.412 51.5957 239.828 53.5157 238.7C55.4597 237.572 57.6677 237.008 60.1397 237.008ZM81.3825 243.884C84.1425 243.884 86.3025 244.676 87.8625 246.26C89.4225 247.82 90.2025 250.304 90.2025 253.712C90.2025 257.12 89.4225 259.604 87.8625 261.164C86.3025 262.724 84.1425 263.504 81.3825 263.504C78.6465 263.504 76.4865 262.724 74.9025 261.164C73.3425 259.604 72.5625 257.12 72.5625 253.712C72.5625 250.304 73.3425 247.82 74.9025 246.26C76.4865 244.676 78.6465 243.884 81.3825 243.884ZM81.3825 244.604C80.3505 244.604 79.5225 245.36 78.8985 246.872C78.2985 248.36 77.9985 250.64 77.9985 253.712C77.9985 256.784 78.2985 259.064 78.8985 260.552C79.5225 262.04 80.3505 262.784 81.3825 262.784C82.4385 262.784 83.2665 262.052 83.8665 260.588C84.4665 259.1 84.7665 256.808 84.7665 253.712C84.7665 250.616 84.4545 248.324 83.8305 246.836C83.2305 245.348 82.4145 244.604 81.3825 244.604ZM121.394 259.652C121.394 260.636 121.562 261.32 121.898 261.704C122.258 262.064 122.858 262.244 123.698 262.244V263C121.298 262.904 119.714 262.856 118.946 262.856C118.274 262.856 116.786 262.904 114.482 263V262.244C115.13 262.244 115.574 262.064 115.814 261.704C116.078 261.344 116.21 260.66 116.21 259.652V248.456C116.21 247.448 116.054 246.704 115.742 246.224C115.454 245.72 114.89 245.468 114.05 245.468C113.162 245.468 112.382 245.84 111.71 246.584C111.062 247.328 110.678 248.24 110.558 249.32V249.968V259.652C110.558 260.636 110.702 261.32 110.99 261.704C111.302 262.064 111.854 262.244 112.646 262.244V263C110.342 262.904 108.83 262.856 108.11 262.856C107.438 262.856 105.95 262.904 103.646 263V262.244C104.294 262.244 104.738 262.064 104.978 261.704C105.242 261.32 105.374 260.636 105.374 259.652V248.456C105.374 247.448 105.242 246.704 104.978 246.224C104.714 245.72 104.198 245.468 103.43 245.468C102.47 245.468 101.642 245.876 100.946 246.692C100.274 247.484 99.9379 248.468 99.9379 249.644V259.652C99.9379 260.636 100.058 261.32 100.298 261.704C100.562 262.064 101.018 262.244 101.666 262.244V263C99.5539 262.904 98.1379 262.856 97.4179 262.856C96.6979 262.856 95.0419 262.904 92.4499 263V262.244C93.3139 262.244 93.9139 262.064 94.2499 261.704C94.5859 261.32 94.7539 260.636 94.7539 259.652V248.312C94.7539 247.208 94.5859 246.404 94.2499 245.9C93.9139 245.396 93.3139 245.144 92.4499 245.144V244.388C93.2179 244.46 93.9619 244.496 94.6819 244.496C96.8179 244.496 98.5699 244.328 99.9379 243.992V247.232C100.994 245 102.854 243.884 105.518 243.884C107.342 243.884 108.662 244.352 109.478 245.288C109.934 245.768 110.234 246.488 110.378 247.448C111.002 246.152 111.818 245.24 112.826 244.712C113.834 244.16 115.01 243.884 116.354 243.884C118.178 243.884 119.498 244.352 120.314 245.288C120.698 245.72 120.974 246.308 121.142 247.052C121.31 247.796 121.394 248.768 121.394 249.968V259.652ZM129.72 235.1C130.728 235.1 131.52 235.352 132.096 235.856C132.696 236.336 132.996 237.008 132.996 237.872C132.996 238.736 132.696 239.42 132.096 239.924C131.52 240.404 130.728 240.644 129.72 240.644C128.712 240.644 127.908 240.404 127.308 239.924C126.732 239.42 126.444 238.736 126.444 237.872C126.444 237.008 126.732 236.336 127.308 235.856C127.908 235.352 128.712 235.1 129.72 235.1ZM132.528 259.652C132.528 260.636 132.696 261.32 133.032 261.704C133.392 262.064 133.992 262.244 134.832 262.244V263C132.432 262.904 130.836 262.856 130.044 262.856C129.3 262.856 127.632 262.904 125.04 263V262.244C125.904 262.244 126.504 262.064 126.84 261.704C127.176 261.32 127.344 260.636 127.344 259.652V248.312C127.344 247.208 127.176 246.404 126.84 245.9C126.504 245.396 125.904 245.144 125.04 245.144V244.388C125.808 244.46 126.552 244.496 127.272 244.496C129.408 244.496 131.16 244.328 132.528 243.992V259.652ZM149.787 243.884C151.611 243.884 152.931 244.352 153.747 245.288C154.155 245.744 154.443 246.332 154.611 247.052C154.779 247.772 154.863 248.744 154.863 249.968V259.652C154.863 260.636 155.031 261.32 155.367 261.704C155.727 262.064 156.327 262.244 157.167 262.244V263C154.767 262.904 153.183 262.856 152.415 262.856C151.695 262.856 150.135 262.904 147.735 263V262.244C148.455 262.244 148.959 262.064 149.247 261.704C149.535 261.32 149.679 260.636 149.679 259.652V248.456C149.679 247.472 149.511 246.728 149.175 246.224C148.863 245.72 148.287 245.468 147.447 245.468C146.463 245.468 145.623 245.876 144.927 246.692C144.231 247.484 143.883 248.468 143.883 249.644V259.652C143.883 260.636 144.027 261.32 144.315 261.704C144.603 262.064 145.107 262.244 145.827 262.244V263C143.619 262.904 142.131 262.856 141.363 262.856C140.643 262.856 138.987 262.904 136.395 263V262.244C137.259 262.244 137.859 262.064 138.195 261.704C138.531 261.32 138.699 260.636 138.699 259.652V248.312C138.699 247.208 138.531 246.404 138.195 245.9C137.859 245.396 137.259 245.144 136.395 245.144V244.388C137.163 244.46 137.907 244.496 138.627 244.496C140.763 244.496 142.515 244.328 143.883 243.992V247.232C144.963 245 146.931 243.884 149.787 243.884ZM175.326 247.844C174.846 247.844 174.438 247.688 174.102 247.376C173.766 247.04 173.598 246.572 173.598 245.972C173.598 245.396 173.742 244.808 174.03 244.208C173.454 244.448 172.974 244.724 172.59 245.036C172.23 245.324 171.918 245.696 171.654 246.152C172.398 247.04 172.77 248.192 172.77 249.608C172.77 251.504 172.11 252.932 170.79 253.892C169.494 254.852 167.766 255.332 165.606 255.332H164.958C163.974 255.908 163.482 256.544 163.482 257.24C163.482 258.008 163.962 258.392 164.922 258.392H168.846C170.958 258.392 172.638 258.788 173.886 259.58C175.158 260.348 175.794 261.536 175.794 263.144C175.794 264.368 175.398 265.472 174.606 266.456C173.838 267.464 172.662 268.268 171.078 268.868C169.494 269.468 167.55 269.768 165.246 269.768C162.918 269.768 161.046 269.468 159.63 268.868C158.238 268.292 157.542 267.452 157.542 266.348C157.542 265.604 157.878 264.932 158.55 264.332C159.222 263.756 160.218 263.3 161.538 262.964L161.862 263.54C160.998 264.26 160.566 265.088 160.566 266.024C160.566 267.032 161.022 267.8 161.934 268.328C162.846 268.88 164.106 269.156 165.714 269.156C167.394 269.156 168.75 268.82 169.782 268.148C170.838 267.476 171.366 266.528 171.366 265.304C171.366 264.512 171.066 263.888 170.466 263.432C169.89 262.976 168.87 262.748 167.406 262.748H165.174C163.638 262.748 162.438 262.496 161.574 261.992C160.71 261.464 160.278 260.672 160.278 259.616C160.278 258.728 160.59 257.936 161.214 257.24C161.838 256.544 162.786 255.872 164.058 255.224C162.33 255.008 160.962 254.432 159.954 253.496C158.946 252.56 158.442 251.264 158.442 249.608C158.442 247.712 159.09 246.284 160.386 245.324C161.706 244.364 163.446 243.884 165.606 243.884C168.006 243.884 169.842 244.448 171.114 245.576C171.57 244.928 172.134 244.412 172.806 244.028C173.478 243.644 174.162 243.452 174.858 243.452C175.578 243.452 176.142 243.668 176.55 244.1C176.982 244.508 177.198 245.048 177.198 245.72C177.198 246.392 177.006 246.92 176.622 247.304C176.262 247.664 175.83 247.844 175.326 247.844ZM165.606 254.684C166.278 254.684 166.782 254.3 167.118 253.532C167.478 252.764 167.658 251.456 167.658 249.608C167.658 247.76 167.478 246.452 167.118 245.684C166.782 244.916 166.278 244.532 165.606 244.532C164.934 244.532 164.418 244.916 164.058 245.684C163.722 246.452 163.554 247.76 163.554 249.608C163.554 251.456 163.722 252.764 164.058 253.532C164.418 254.3 164.934 254.684 165.606 254.684ZM193.691 243.884C194.603 243.884 195.443 244.004 196.211 244.244C196.979 244.46 197.567 244.712 197.975 245C198.215 245.168 198.431 245.252 198.623 245.252C198.839 245.252 199.019 245.144 199.163 244.928C199.331 244.688 199.439 244.352 199.487 243.92H200.243C200.147 245.144 200.099 247.256 200.099 250.256H199.343C199.127 248.672 198.647 247.352 197.903 246.296C197.183 245.216 196.127 244.676 194.735 244.676C194.015 244.676 193.415 244.88 192.935 245.288C192.479 245.696 192.251 246.26 192.251 246.98C192.251 247.796 192.527 248.504 193.079 249.104C193.631 249.68 194.495 250.388 195.671 251.228L196.715 251.984C198.179 253.088 199.259 254.072 199.955 254.936C200.651 255.8 200.999 256.88 200.999 258.176C200.999 259.232 200.687 260.168 200.063 260.984C199.463 261.8 198.647 262.424 197.615 262.856C196.583 263.288 195.443 263.504 194.195 263.504C192.875 263.504 191.747 263.252 190.811 262.748C190.043 262.364 189.491 262.112 189.155 261.992C188.915 261.92 188.699 262.004 188.507 262.244C188.339 262.46 188.207 262.796 188.111 263.252H187.355C187.451 261.884 187.499 259.484 187.499 256.052H188.255C188.735 260.468 190.355 262.676 193.115 262.676C193.811 262.676 194.399 262.472 194.879 262.064C195.383 261.632 195.635 260.984 195.635 260.12C195.635 259.448 195.479 258.848 195.167 258.32C194.879 257.792 194.507 257.324 194.051 256.916C193.595 256.508 192.911 255.944 191.999 255.224C190.919 254.36 190.091 253.664 189.515 253.136C188.963 252.608 188.483 251.984 188.075 251.264C187.691 250.544 187.499 249.74 187.499 248.852C187.499 247.316 188.099 246.104 189.299 245.216C190.499 244.328 191.963 243.884 193.691 243.884ZM212.48 243.884C215.24 243.884 217.4 244.676 218.96 246.26C220.52 247.82 221.3 250.304 221.3 253.712C221.3 257.12 220.52 259.604 218.96 261.164C217.4 262.724 215.24 263.504 212.48 263.504C209.744 263.504 207.584 262.724 206 261.164C204.44 259.604 203.66 257.12 203.66 253.712C203.66 250.304 204.44 247.82 206 246.26C207.584 244.676 209.744 243.884 212.48 243.884ZM212.48 244.604C211.448 244.604 210.62 245.36 209.996 246.872C209.396 248.36 209.096 250.64 209.096 253.712C209.096 256.784 209.396 259.064 209.996 260.552C210.62 262.04 211.448 262.784 212.48 262.784C213.536 262.784 214.364 262.052 214.964 260.588C215.564 259.1 215.864 256.808 215.864 253.712C215.864 250.616 215.552 248.324 214.928 246.836C214.328 245.348 213.512 244.604 212.48 244.604ZM232.836 243.884C235.596 243.884 237.756 244.676 239.316 246.26C240.876 247.82 241.656 250.304 241.656 253.712C241.656 257.12 240.876 259.604 239.316 261.164C237.756 262.724 235.596 263.504 232.836 263.504C230.1 263.504 227.94 262.724 226.356 261.164C224.796 259.604 224.016 257.12 224.016 253.712C224.016 250.304 224.796 247.82 226.356 246.26C227.94 244.676 230.1 243.884 232.836 243.884ZM232.836 244.604C231.804 244.604 230.976 245.36 230.352 246.872C229.752 248.36 229.452 250.64 229.452 253.712C229.452 256.784 229.752 259.064 230.352 260.552C230.976 262.04 231.804 262.784 232.836 262.784C233.892 262.784 234.72 262.052 235.32 260.588C235.92 259.1 236.22 256.808 236.22 253.712C236.22 250.616 235.908 248.324 235.284 246.836C234.684 245.348 233.868 244.604 232.836 244.604ZM257.295 243.884C259.119 243.884 260.439 244.352 261.255 245.288C261.663 245.744 261.951 246.332 262.119 247.052C262.287 247.772 262.371 248.744 262.371 249.968V259.652C262.371 260.636 262.539 261.32 262.875 261.704C263.235 262.064 263.835 262.244 264.675 262.244V263C262.275 262.904 260.691 262.856 259.923 262.856C259.203 262.856 257.643 262.904 255.243 263V262.244C255.963 262.244 256.467 262.064 256.755 261.704C257.043 261.32 257.187 260.636 257.187 259.652V248.456C257.187 247.472 257.019 246.728 256.683 246.224C256.371 245.72 255.795 245.468 254.955 245.468C253.971 245.468 253.131 245.876 252.435 246.692C251.739 247.484 251.391 248.468 251.391 249.644V259.652C251.391 260.636 251.535 261.32 251.823 261.704C252.111 262.064 252.615 262.244 253.335 262.244V263C251.127 262.904 249.639 262.856 248.871 262.856C248.151 262.856 246.495 262.904 243.903 263V262.244C244.767 262.244 245.367 262.064 245.703 261.704C246.039 261.32 246.207 260.636 246.207 259.652V248.312C246.207 247.208 246.039 246.404 245.703 245.9C245.367 245.396 244.767 245.144 243.903 245.144V244.388C244.671 244.46 245.415 244.496 246.135 244.496C248.271 244.496 250.023 244.328 251.391 243.992V247.232C252.471 245 254.439 243.884 257.295 243.884Z" fill="#BBBBBB"/>
</svg>
