<svg width="28" height="28" viewBox="0 0 28 28" fill="none" xmlns="http://www.w3.org/2000/svg">
<path d="M21 14.0003L17.5 14.0003L22.1667 18.667L26.8334 14.0003L23.3334 14.0003C23.3334 8.84366 19.1567 4.66699 14 4.66699C12.1684 4.66699 10.465 5.20366 9.03004 6.11366L10.7334 7.81699C11.7017 7.29199 12.8217 7.00032 14 7.00032C17.8617 7.00032 21 10.1387 21 14.0003ZM18.97 21.887L17.2667 20.1837C16.2867 20.697 15.1784 21.0003 14 21.0003C10.1384 21.0003 7.00004 17.862 7.00004 14.0003L10.5 14.0003L5.83337 9.33366L1.16671 14.0003L4.66671 14.0003C4.66671 19.157 8.84337 23.3337 14 23.3337C15.8317 23.3337 17.535 22.797 18.97 21.887Z" fill="white"/>
</svg>
